<?xml version="1.0" standalone="no"?>
<!DOCTYPE svg PUBLIC "-//W3C//DTD SVG 20010904//EN"
 "http://www.w3.org/TR/2001/REC-SVG-20010904/DTD/svg10.dtd">
<svg version="1.0" xmlns="http://www.w3.org/2000/svg"
 width="900.000000pt" height="1302.000000pt" viewBox="0 0 900.000000 1302.000000"
 preserveAspectRatio="xMidYMid meet">

<g transform="translate(0.000000,1302.000000) scale(0.100000,-0.100000)"
fill="#000000" stroke="none">
<path d="M2100 11860 l0 -760 734 0 733 0 7 38 c3 20 6 106 6 190 l0 152 -327
0 c-181 0 -412 3 -515 7 l-188 6 0 327 0 327 122 6 c66 4 298 7 515 7 l393 0
0 230 0 230 -740 0 -740 0 0 -760z"/>
<path d="M3750 12160 l0 -460 518 -2 517 -3 0 -112 0 -113 -140 -4 c-77 -2
-310 -5 -517 -5 l-378 -1 0 -180 0 -180 743 0 c409 0 746 2 748 4 2 2 3 205 1
450 l-2 446 -488 0 c-268 0 -511 3 -539 6 l-53 7 0 77 0 77 61 7 c34 3 277 6
540 6 l479 0 0 220 0 220 -745 0 -745 0 0 -460z"/>
<path d="M5405 12218 c-4 -222 -5 -430 -3 -463 l3 -60 518 -3 517 -2 0 -115 0
-115 -514 0 -515 0 -6 -42 c-3 -24 -5 -104 -3 -178 l3 -135 748 -3 747 -2 1
162 c1 259 -2 722 -5 725 -1 2 -245 6 -542 10 l-539 8 -3 83 -4 82 184 0 c102
0 347 3 545 7 l360 6 7 90 c3 49 3 147 -1 218 l-6 129 -742 0 -743 0 -7 -402z"/>
<path d="M500 10458 c0 -7 7 -74 15 -148 9 -74 22 -209 31 -300 8 -91 19 -214
24 -275 14 -151 47 -526 65 -725 8 -91 21 -246 30 -345 8 -99 24 -281 35 -405
28 -325 49 -561 60 -675 5 -55 19 -203 30 -330 11 -126 27 -302 35 -390 24
-265 53 -592 65 -725 6 -69 15 -168 20 -220 12 -112 47 -508 60 -665 5 -60 18
-209 29 -330 23 -252 46 -514 61 -695 16 -195 37 -435 59 -680 12 -124 30
-324 40 -445 11 -121 25 -267 31 -325 29 -294 40 -409 40 -428 0 -16 11 -24
53 -35 28 -8 104 -29 167 -47 63 -17 169 -46 235 -65 66 -18 230 -65 365 -103
135 -39 376 -107 535 -152 160 -45 439 -124 620 -175 182 -52 395 -112 475
-134 80 -22 296 -83 480 -135 l335 -95 188 54 c167 49 392 112 677 190 110 30
355 99 550 155 74 22 243 69 375 106 405 112 473 131 695 194 229 66 448 127
595 166 50 14 113 31 141 39 l52 15 6 52 c8 65 30 300 56 603 11 127 22 248
25 270 3 22 15 144 26 270 11 127 27 304 35 395 8 91 23 266 34 390 11 124 26
304 35 400 8 96 22 252 30 345 8 94 29 323 46 510 16 187 37 412 44 500 8 88
24 261 35 385 11 124 25 277 30 340 6 63 14 160 20 215 6 55 26 280 45 500 19
220 37 420 40 445 3 25 14 151 25 280 11 129 26 309 34 400 8 91 24 269 35
395 11 127 27 309 36 405 8 96 20 222 25 280 6 58 15 159 20 225 19 221 40
460 45 498 l5 37 -4000 0 c-3193 0 -4000 -3 -4000 -12z m7275 -660 c-3 -13
-12 -98 -20 -190 -8 -93 -22 -243 -30 -335 -14 -156 -41 -459 -65 -733 -5 -63
-12 -135 -15 -160 -3 -25 -12 -130 -21 -235 -8 -104 -21 -262 -29 -350 -8 -88
-21 -241 -29 -340 -9 -99 -18 -202 -21 -230 -3 -27 -12 -126 -20 -220 -9 -93
-22 -244 -31 -335 -35 -381 -45 -494 -59 -655 -8 -93 -22 -244 -30 -335 -8
-91 -24 -268 -35 -395 -11 -126 -26 -304 -34 -395 -8 -91 -20 -221 -25 -290
-6 -69 -16 -172 -21 -230 -6 -58 -19 -211 -30 -340 -11 -129 -24 -278 -30
-330 -5 -52 -14 -151 -20 -220 -21 -264 -40 -468 -51 -551 l-11 -86 -167 -46
c-249 -69 -1112 -306 -1481 -407 -179 -49 -433 -119 -565 -155 -230 -63 -395
-105 -415 -105 -6 0 -10 166 -10 444 0 243 -3 470 -6 502 l-6 59 -597 148
c-328 82 -702 177 -831 212 -129 35 -359 95 -510 135 -151 39 -276 73 -277 74
-15 14 -100 757 -123 1066 -26 367 -30 428 -30 453 l0 27 463 0 c254 0 479 -3
499 -6 44 -8 36 35 73 -414 36 -431 30 -398 73 -410 37 -11 215 -46 477 -95
77 -15 219 -42 315 -61 238 -46 471 -86 476 -81 2 2 4 375 4 830 l1 827 -1205
0 c-663 0 -1212 -3 -1220 -6 -9 -3 -18 0 -21 7 -2 8 -14 111 -25 229 -12 118
-28 280 -36 360 -8 80 -16 210 -17 289 l-2 144 30 17 c33 18 108 51 1030 447
352 151 654 281 670 288 17 8 165 73 330 145 165 73 311 138 325 146 22 12 23
13 5 15 -11 0 -579 4 -1262 7 -683 4 -1245 10 -1249 15 -17 17 -104 771 -104
904 l0 23 1375 0 1375 0 0 475 0 475 1635 0 1635 0 -5 -22z"/>
</g>
</svg>
