<?xml version="1.0" standalone="no"?>
<!DOCTYPE svg PUBLIC "-//W3C//DTD SVG 20010904//EN"
 "http://www.w3.org/TR/2001/REC-SVG-20010904/DTD/svg10.dtd">
<svg version="1.0" xmlns="http://www.w3.org/2000/svg"
 width="103.000000pt" height="103.000000pt" viewBox="0 0 103.000000 103.000000"
 preserveAspectRatio="xMidYMid meet">

<g transform="translate(0.000000,103.000000) scale(0.100000,-0.100000)"
fill="#000000" stroke="none">
<path d="M455 965 c-5 -2 -28 -9 -51 -14 -49 -13 -130 -65 -146 -94 -9 -18 -6
-17 22 6 18 16 56 40 84 55 46 24 62 27 151 27 110 0 136 -9 229 -80 40 -30
44 -32 31 -11 -23 34 -99 81 -164 100 -50 15 -131 20 -156 11z"/>
<path d="M199 893 l-24 -28 28 24 c25 23 32 31 24 31 -2 0 -14 -12 -28 -27z"/>
<path d="M810 906 c0 -2 8 -10 18 -17 15 -13 16 -12 3 4 -13 16 -21 21 -21 13z"/>
<path d="M450 893 c-8 -3 -32 -14 -53 -24 -21 -11 -36 -15 -32 -9 12 19 -2 10
-39 -25 -21 -19 -34 -35 -29 -35 4 0 -3 -7 -15 -16 -12 -8 -22 -24 -22 -35 0
-10 -4 -19 -10 -19 -5 0 -10 -11 -10 -25 0 -14 -4 -25 -9 -25 -19 0 -2 -139
23 -195 22 -47 76 -116 76 -97 0 4 4 2 8 -3 13 -20 85 -56 99 -51 8 3 12 2 9
-2 -3 -5 33 -8 79 -8 46 1 81 4 78 9 -2 4 3 7 11 7 9 0 16 4 16 9 0 5 10 11
23 14 29 8 100 76 123 119 12 23 18 58 18 118 2 77 -1 91 -30 147 -17 34 -34
60 -37 57 -3 -3 -10 4 -17 15 -6 12 -18 21 -26 21 -9 0 -12 5 -8 12 5 8 2 9
-9 5 -10 -3 -17 -3 -17 1 0 27 -149 53 -200 35z m188 -74 c64 -31 96 -85 100
-168 3 -74 -15 -122 -58 -152 -45 -31 -67 -33 -95 -5 l-26 26 -29 -22 c-89
-66 -172 26 -118 132 32 63 76 90 149 90 32 0 60 -4 63 -9 3 -4 -1 -43 -9 -86
-15 -76 -13 -115 5 -115 5 0 21 11 36 23 23 20 28 34 31 83 7 105 -52 174
-149 174 -85 0 -154 -49 -183 -129 -54 -155 46 -284 198 -251 39 8 52 8 58 -2
24 -38 -142 -53 -209 -19 -100 51 -138 162 -97 282 47 137 207 208 333 148z"/>
<path d="M487 659 c-54 -41 -57 -139 -6 -139 49 0 81 40 93 118 l6 42 -34 0
c-18 0 -45 -9 -59 -21z"/>
<path d="M840 866 c0 -2 8 -10 18 -17 15 -13 16 -12 3 4 -13 16 -21 21 -21 13z"/>
<path d="M820 321 c-36 -38 -79 -69 -125 -92 -66 -32 -75 -34 -180 -34 -103 0
-114 2 -177 32 -37 17 -89 51 -116 75 -47 42 -47 42 4 -8 159 -156 399 -161
568 -13 38 33 96 101 84 98 -2 0 -28 -26 -58 -58z"/>
</g>
</svg>
