<?xml version="1.0" standalone="no"?>
<!DOCTYPE svg PUBLIC "-//W3C//DTD SVG 20010904//EN"
 "http://www.w3.org/TR/2001/REC-SVG-20010904/DTD/svg10.dtd">
<svg version="1.0" xmlns="http://www.w3.org/2000/svg"
 width="295.000000pt" height="294.000000pt" viewBox="0 0 295.000000 294.000000"
 preserveAspectRatio="xMidYMid meet">

<g transform="translate(0.000000,294.000000) scale(0.100000,-0.100000)"
fill="#000000" stroke="none">
<path d="M540 2930 c-14 -5 -52 -16 -85 -25 -150 -42 -308 -174 -377 -315 -20
-41 -42 -95 -48 -120 -6 -25 -16 -61 -21 -80 -12 -43 -8 -1679 4 -1698 12 -18
36 14 37 49 0 15 7 29 15 33 8 3 15 1 15 -5 0 -6 15 5 33 23 73 75 177 151
207 152 8 1 20 12 27 26 7 14 13 19 13 11 0 -10 3 -11 14 -2 12 10 15 7 19
-21 2 -18 5 203 6 492 2 600 5 634 71 768 90 181 260 307 460 342 44 7 233 10
590 8 l525 -3 75 -28 c129 -48 206 -103 295 -213 59 -71 92 -138 116 -232 18
-70 19 -114 19 -622 0 -511 -1 -552 -20 -624 -39 -152 -124 -276 -252 -366
-88 -62 -187 -97 -318 -114 -58 -7 -95 -14 -83 -15 30 -1 40 -21 11 -22 -13 0
-17 -3 -10 -6 6 -2 12 -10 12 -18 0 -7 6 -17 13 -23 7 -6 14 -39 15 -74 2 -34
7 -65 12 -68 4 -3 11 -35 15 -72 l7 -68 197 0 c323 1 455 43 606 194 87 87
135 167 174 288 21 67 21 77 21 998 0 522 -4 930 -9 930 -5 0 -11 19 -15 43
-4 23 -25 79 -47 125 -77 160 -228 284 -404 334 l-80 23 -915 1 c-503 1 -926
-2 -940 -6z"/>
<path d="M923 2386 c-167 -41 -312 -192 -343 -357 -6 -30 -9 -255 -9 -533 1
-264 4 -470 6 -456 6 34 21 49 32 31 7 -11 10 -11 21 1 9 9 35 12 91 10 52 -2
79 0 79 7 0 7 29 10 84 9 47 -2 81 -7 78 -12 -3 -5 5 -6 19 -3 16 4 30 0 46
-15 13 -12 23 -17 23 -11 0 16 -46 54 -55 46 -4 -5 -5 -2 -1 5 5 8 -3 30 -19
54 -76 115 -107 308 -70 448 57 221 233 389 455 436 181 38 401 -22 534 -147
113 -105 167 -239 167 -414 0 -119 -17 -191 -69 -289 -69 -132 -237 -269 -358
-292 -19 -3 -34 -10 -34 -14 0 -4 -12 -5 -27 -3 -22 4 -25 2 -13 -6 11 -7 0
-9 -40 -7 -30 2 -38 1 -17 -1 20 -2 37 -8 37 -13 0 -10 122 -130 132 -130 4 0
8 -7 8 -15 0 -8 7 -15 15 -15 8 0 23 -19 33 -43 11 -24 31 -55 46 -70 14 -14
26 -28 26 -31 0 -3 -21 -7 -47 -9 -27 -2 18 -4 99 -5 119 -2 157 2 207 17 126
39 219 122 279 249 l37 77 0 580 0 580 -23 57 c-48 119 -155 224 -277 270 -60
23 -63 23 -580 25 -394 1 -533 -1 -572 -11z m1204 -187 c73 -27 106 -102 78
-175 -56 -146 -265 -109 -265 46 0 101 93 165 187 129z"/>
<path d="M1344 1832 c-170 -61 -276 -245 -244 -424 23 -123 89 -214 202 -274
71 -38 76 -39 173 -39 87 0 107 3 155 26 175 83 265 278 216 469 -28 111 -81
174 -185 223 -56 26 -78 31 -165 34 -79 3 -112 0 -152 -15z"/>
<path d="M1055 1039 c-5 -7 -4 -10 2 -6 6 4 19 -3 29 -14 10 -12 28 -25 39
-31 11 -6 16 -6 10 -2 -5 5 -24 22 -41 37 -23 21 -34 25 -39 16z"/>
</g>
</svg>
