<?xml version="1.0" standalone="no"?>
<!DOCTYPE svg PUBLIC "-//W3C//DTD SVG 20010904//EN"
 "http://www.w3.org/TR/2001/REC-SVG-20010904/DTD/svg10.dtd">
<svg version="1.0" xmlns="http://www.w3.org/2000/svg"
 width="375.000000pt" height="375.000000pt" viewBox="0 0 375.000000 375.000000"
 preserveAspectRatio="xMidYMid meet">

<g transform="translate(0.000000,375.000000) scale(0.100000,-0.100000)"
fill="#000000" stroke="none">
<path d="M1710 3740 c-8 -5 -31 -10 -50 -10 -39 0 -206 -31 -285 -53 -330 -91
-678 -309 -900 -565 -228 -261 -383 -582 -439 -907 -8 -49 -18 -108 -22 -130
-9 -52 -9 -350 0 -395 3 -19 11 -66 17 -105 122 -798 774 -1438 1585 -1556
106 -16 419 -16 519 -1 217 34 407 96 603 197 167 86 291 176 431 310 307 297
485 637 559 1070 18 109 28 475 12 475 -5 0 -10 18 -10 41 0 123 -80 389 -175
584 -276 567 -791 937 -1440 1036 -104 16 -385 22 -405 9z m-471 -786 c62 -18
127 -73 152 -129 23 -49 25 -152 5 -200 -66 -157 -259 -206 -386 -97 -52 44
-81 101 -87 173 -11 115 75 231 192 260 47 11 68 10 124 -7z m1336 -629 c178
-47 290 -168 329 -358 13 -63 16 -157 16 -542 l0 -465 -206 2 -205 3 1 340 c0
367 -8 482 -39 542 -49 96 -144 133 -265 102 -57 -14 -105 -55 -136 -115 l-25
-49 -5 -410 -5 -410 -197 0 c-109 0 -198 3 -198 8 0 4 0 304 0 667 l0 660 200
0 200 0 0 -78 0 -77 63 60 c66 63 131 101 207 121 63 18 195 17 265 -1z
m-1195 -695 l0 -670 -210 0 -210 0 0 670 0 670 210 0 210 0 0 -670z"/>
</g>
</svg>
